<?xml version="1.0" encoding="UTF-8" standalone="no"?>
<!DOCTYPE svg PUBLIC "-//W3C//DTD SVG 1.1//EN"
 "http://www.w3.org/Graphics/SVG/1.1/DTD/svg11.dtd">
<!-- Generated by graphviz version 2.28.0 (20110509.1545)
 -->
<!-- Title: G Pages: 1 -->
<svg width="1032pt" height="333pt"
 viewBox="0.00 0.00 1032.00 333.00" xmlns="http://www.w3.org/2000/svg" xmlns:xlink="http://www.w3.org/1999/xlink">
<g id="graph1" class="graph" transform="scale(1 1) rotate(0) translate(4 329)">
<title>G</title>
<polygon fill="white" stroke="white" points="-4,5 -4,-329 1029,-329 1029,5 -4,5"/>
<g id="graph2" class="cluster"><title>cluster_BarnabyWalters</title>
<polyline fill="none" stroke="gray" points="852,-8 1004,-8 "/>
<path fill="none" stroke="gray" d="M1004,-8C1010,-8 1016,-14 1016,-20"/>
<polyline fill="none" stroke="gray" points="1016,-20 1016,-305 "/>
<path fill="none" stroke="gray" d="M1016,-305C1016,-311 1010,-317 1004,-317"/>
<polyline fill="none" stroke="gray" points="1004,-317 852,-317 "/>
<path fill="none" stroke="gray" d="M852,-317C846,-317 840,-311 840,-305"/>
<polyline fill="none" stroke="gray" points="840,-305 840,-20 "/>
<path fill="none" stroke="gray" d="M840,-20C840,-14 846,-8 852,-8"/>
<text text-anchor="middle" x="928" y="-302" font-family="Times,serif" font-size="11.00" fill="gray">BarnabyWalters</text>
</g>
<g id="graph3" class="cluster"><title>cluster_BarnabyWalters\Indieauth</title>
<polyline fill="none" stroke="gray" points="860,-16 996,-16 "/>
<path fill="none" stroke="gray" d="M996,-16C1002,-16 1008,-22 1008,-28"/>
<polyline fill="none" stroke="gray" points="1008,-28 1008,-276 "/>
<path fill="none" stroke="gray" d="M1008,-276C1008,-282 1002,-288 996,-288"/>
<polyline fill="none" stroke="gray" points="996,-288 860,-288 "/>
<path fill="none" stroke="gray" d="M860,-288C854,-288 848,-282 848,-276"/>
<polyline fill="none" stroke="gray" points="848,-276 848,-28 "/>
<path fill="none" stroke="gray" d="M848,-28C848,-22 854,-16 860,-16"/>
<text text-anchor="middle" x="928" y="-273" font-family="Times,serif" font-size="11.00" fill="gray">Indieauth</text>
</g>
<g id="graph4" class="cluster"><title>cluster_BarnabyWalters\Indieauth\Listener</title>
<polyline fill="none" stroke="gray" points="868,-186 988,-186 "/>
<path fill="none" stroke="gray" d="M988,-186C994,-186 1000,-192 1000,-198"/>
<polyline fill="none" stroke="gray" points="1000,-198 1000,-247 "/>
<path fill="none" stroke="gray" d="M1000,-247C1000,-253 994,-259 988,-259"/>
<polyline fill="none" stroke="gray" points="988,-259 868,-259 "/>
<path fill="none" stroke="gray" d="M868,-259C862,-259 856,-253 856,-247"/>
<polyline fill="none" stroke="gray" points="856,-247 856,-198 "/>
<path fill="none" stroke="gray" d="M856,-198C856,-192 862,-186 868,-186"/>
<text text-anchor="middle" x="928" y="-244" font-family="Times,serif" font-size="11.00" fill="gray">Listener</text>
</g>
<g id="graph5" class="cluster"><title>cluster_BarnabyWalters\Indieauth\Provider</title>
<polyline fill="none" stroke="gray" points="868,-105 988,-105 "/>
<path fill="none" stroke="gray" d="M988,-105C994,-105 1000,-111 1000,-117"/>
<polyline fill="none" stroke="gray" points="1000,-117 1000,-166 "/>
<path fill="none" stroke="gray" d="M1000,-166C1000,-172 994,-178 988,-178"/>
<polyline fill="none" stroke="gray" points="988,-178 868,-178 "/>
<path fill="none" stroke="gray" d="M868,-178C862,-178 856,-172 856,-166"/>
<polyline fill="none" stroke="gray" points="856,-166 856,-117 "/>
<path fill="none" stroke="gray" d="M856,-117C856,-111 862,-105 868,-105"/>
<text text-anchor="middle" x="928" y="-163" font-family="Times,serif" font-size="11.00" fill="gray">Provider</text>
</g>
<g id="graph6" class="cluster"><title>cluster_BarnabyWalters\Indieauth\Token</title>
<polyline fill="none" stroke="gray" points="878,-24 978,-24 "/>
<path fill="none" stroke="gray" d="M978,-24C984,-24 990,-30 990,-36"/>
<polyline fill="none" stroke="gray" points="990,-36 990,-85 "/>
<path fill="none" stroke="gray" d="M990,-85C990,-91 984,-97 978,-97"/>
<polyline fill="none" stroke="gray" points="978,-97 878,-97 "/>
<path fill="none" stroke="gray" d="M878,-97C872,-97 866,-91 866,-85"/>
<polyline fill="none" stroke="gray" points="866,-85 866,-36 "/>
<path fill="none" stroke="gray" d="M866,-36C866,-30 872,-24 878,-24"/>
<text text-anchor="middle" x="928" y="-82" font-family="Times,serif" font-size="11.00" fill="gray">Token</text>
</g>
<!-- \\BarnabyWalters\\Indieauth\\Listener\\IndieauthListener -->
<g id="node4" class="node"><title>\\BarnabyWalters\\Indieauth\\Listener\\IndieauthListener</title>
<a xlink:href="Listener.IndieauthListener.html" xlink:title="IndieauthListener" target="_parent">
<polygon fill="none" stroke="black" points="992.218,-230 863.782,-230 863.782,-194 992.218,-194 992.218,-230"/>
<text text-anchor="middle" x="928" y="-207.6" font-family="Courier,monospace" font-size="11.00">IndieauthListener</text>
</a>
</g>
<!-- \\Symfony\\Component\\Security\\Http\\Firewall\\AbstractAuthenticationListener -->
<g id="node13" class="node"><title>\\Symfony\\Component\\Security\\Http\\Firewall\\AbstractAuthenticationListener</title>
<ellipse fill="none" stroke="black" cx="396" cy="-212" rx="310.775" ry="18"/>
<text text-anchor="middle" x="396" y="-206.4" font-family="Times,serif" font-size="14.00" fill="gray">\Symfony\Component\Security\Http\Firewall\AbstractAuthenticationListener</text>
</g>
<!-- \\BarnabyWalters\\Indieauth\\Listener\\IndieauthListener&#45;&gt;\\Symfony\\Component\\Security\\Http\\Firewall\\AbstractAuthenticationListener -->
<g id="edge10" class="edge"><title>\\BarnabyWalters\\Indieauth\\Listener\\IndieauthListener&#45;&gt;\\Symfony\\Component\\Security\\Http\\Firewall\\AbstractAuthenticationListener</title>
<path fill="none" stroke="black" d="M863.859,-212C825.407,-212 773.046,-212 717.266,-212"/>
<polygon fill="none" stroke="black" points="717.184,-208.5 707.184,-212 717.184,-215.5 717.184,-208.5"/>
</g>
<!-- \\BarnabyWalters\\Indieauth\\Provider\\IndieauthProvider -->
<g id="node6" class="node"><title>\\BarnabyWalters\\Indieauth\\Provider\\IndieauthProvider</title>
<a xlink:href="Provider.IndieauthProvider.html" xlink:title="IndieauthProvider" target="_parent">
<polygon fill="none" stroke="black" points="992.218,-149 863.782,-149 863.782,-113 992.218,-113 992.218,-149"/>
<text text-anchor="middle" x="928" y="-126.6" font-family="Courier,monospace" font-size="11.00">IndieauthProvider</text>
</a>
</g>
<!-- \\Symfony\\Component\\Security\\Core\\Authentication\\Provider\\AuthenticationProviderInterface -->
<g id="node17" class="node"><title>\\Symfony\\Component\\Security\\Core\\Authentication\\Provider\\AuthenticationProviderInterface</title>
<ellipse fill="none" stroke="black" cx="396" cy="-131" rx="395.752" ry="18"/>
<text text-anchor="middle" x="396" y="-125.4" font-family="Times,serif" font-size="14.00" fill="gray">\\Symfony\\Component\\Security\\Core\\Authentication\\Provider\\AuthenticationProviderInterface</text>
</g>
<!-- \\BarnabyWalters\\Indieauth\\Provider\\IndieauthProvider&#45;&gt;\\Symfony\\Component\\Security\\Core\\Authentication\\Provider\\AuthenticationProviderInterface -->
<g id="edge14" class="edge"><title>\\BarnabyWalters\\Indieauth\\Provider\\IndieauthProvider&#45;&gt;\\Symfony\\Component\\Security\\Core\\Authentication\\Provider\\AuthenticationProviderInterface</title>
<path fill="none" stroke="black" stroke-dasharray="1,5" d="M863.859,-131C845.926,-131 824.968,-131 802.05,-131"/>
<polygon fill="none" stroke="black" points="801.75,-127.5 791.75,-131 801.75,-134.5 801.75,-127.5"/>
</g>
<!-- \\BarnabyWalters\\Indieauth\\Token\\IndieauthToken -->
<g id="node8" class="node"><title>\\BarnabyWalters\\Indieauth\\Token\\IndieauthToken</title>
<a xlink:href="Token.IndieauthToken.html" xlink:title="IndieauthToken" target="_parent">
<polygon fill="none" stroke="black" points="982.416,-68 873.584,-68 873.584,-32 982.416,-32 982.416,-68"/>
<text text-anchor="middle" x="928" y="-45.6" font-family="Courier,monospace" font-size="11.00">IndieauthToken</text>
</a>
</g>
<!-- \\Symfony\\Component\\Security\\Core\\Authentication\\Token\\UsernamePasswordToken -->
<g id="node15" class="node"><title>\\Symfony\\Component\\Security\\Core\\Authentication\\Token\\UsernamePasswordToken</title>
<ellipse fill="none" stroke="black" cx="396" cy="-50" rx="342.592" ry="18"/>
<text text-anchor="middle" x="396" y="-44.4" font-family="Times,serif" font-size="14.00" fill="gray">\Symfony\Component\Security\Core\Authentication\Token\UsernamePasswordToken</text>
</g>
<!-- \\BarnabyWalters\\Indieauth\\Token\\IndieauthToken&#45;&gt;\\Symfony\\Component\\Security\\Core\\Authentication\\Token\\UsernamePasswordToken -->
<g id="edge12" class="edge"><title>\\BarnabyWalters\\Indieauth\\Token\\IndieauthToken&#45;&gt;\\Symfony\\Component\\Security\\Core\\Authentication\\Token\\UsernamePasswordToken</title>
<path fill="none" stroke="black" d="M873.755,-50C841.584,-50 797.497,-50 749.043,-50"/>
<polygon fill="none" stroke="black" points="748.969,-46.5001 738.969,-50 748.969,-53.5001 748.969,-46.5001"/>
</g>
</g>
</svg>
